<svg width="180" height="24" viewBox="0 0 180 24" fill="none" xmlns="http://www.w3.org/2000/svg">
<path d="M93.4213 11.5448C94.5865 12.0714 95.4956 12.7589 96.1485 13.6073C96.8015 14.4557 97.1279 15.4357 97.1279 16.5474C97.1279 18.7318 96.3896 20.336 94.913 21.3599C93.4363 22.3839 91.5931 22.8958 89.3832 22.8958H82V1.36392H88.5092C90.8598 1.36392 92.7081 1.82713 94.0541 2.75355C95.4002 3.67997 96.0732 5.02084 96.0732 6.77616C96.0732 7.84885 95.8422 8.7899 95.3801 9.5993C94.918 10.4087 94.2651 11.0572 93.4213 11.5448ZM86.3696 10.1698H89.0215C89.8251 10.1698 90.4479 9.93086 90.8899 9.45302C91.3319 8.97518 91.5529 8.3852 91.5529 7.68307C91.5529 6.96144 91.3018 6.41047 90.7995 6.03015C90.2973 5.64983 89.6041 5.45967 88.7202 5.45967H86.3696V10.1698ZM89.1722 18.9464C90.1968 18.9464 91.0255 18.7465 91.6584 18.3466C92.2912 17.9468 92.6076 17.3471 92.6076 16.5474C92.6076 15.0262 91.362 14.2655 88.8709 14.2655H86.3696V18.9464H89.1722ZM104.36 12.1591C104.36 10.2088 104.868 8.3852 105.882 6.68839C106.897 4.99158 108.273 3.64096 110.011 2.63653C111.749 1.6321 113.632 1.12988 115.661 1.12988C117.69 1.12988 119.574 1.6321 121.312 2.63653C123.049 3.64096 124.436 4.99158 125.47 6.68839C126.505 8.3852 127.022 10.2088 127.022 12.1591C127.022 14.1485 126.505 15.9818 125.47 17.6591C124.436 19.3364 123.049 20.6676 121.312 21.6525C119.574 22.6374 117.69 23.1299 115.661 23.1299C113.612 23.1299 111.723 22.6374 109.996 21.6525C108.268 20.6676 106.897 19.3364 105.882 17.6591C104.868 15.9818 104.36 14.1485 104.36 12.1591ZM108.881 12.1591C108.881 13.4074 109.187 14.5581 109.8 15.6113C110.413 16.6645 111.246 17.4982 112.301 18.1126C113.356 18.727 114.526 19.0341 115.812 19.0341C117.057 19.0341 118.192 18.727 119.217 18.1126C120.242 17.4982 121.045 16.6693 121.628 15.6259C122.211 14.5825 122.502 13.4269 122.502 12.1591C122.502 10.8719 122.2 9.70169 121.598 8.6485C120.995 7.59531 120.176 6.76153 119.142 6.14717C118.107 5.53281 116.957 5.22563 115.691 5.22563C114.426 5.22563 113.275 5.53281 112.241 6.14717C111.206 6.76153 110.387 7.59531 109.785 8.6485C109.182 9.70169 108.881 10.8719 108.881 12.1591ZM135.611 1.36392H142.24C145.073 1.36392 147.404 1.8954 149.232 2.95834C151.06 4.02128 152.391 5.39628 153.225 7.08334C154.059 8.7704 154.475 10.5794 154.475 12.5102C154.475 14.5776 153.973 16.4012 152.969 17.9809C151.964 19.5607 150.613 20.7748 148.915 21.6232C147.218 22.4716 145.354 22.8958 143.325 22.8958H135.611V1.36392ZM142.572 18.8001C144.842 18.8001 146.64 18.2345 147.966 17.1033C149.292 15.9721 149.955 14.3435 149.955 12.2176C149.955 10.5013 149.588 9.13609 148.855 8.1219C148.122 7.10772 147.268 6.40559 146.294 6.01552C145.319 5.62545 144.4 5.43041 143.536 5.43041H139.98V18.8001H142.572ZM180 1.36392L171.683 16.1964V22.8958H167.313V16.1964L159.146 1.36392H164.541L169.633 11.3107L174.606 1.36392H180Z" fill="#111111"/>
<path d="M15.06 1.33899V5.38931H4.35V9.93145H13.83V13.9818H4.35V18.5818H15.48V22.6321H0V1.33899H15.06ZM44.07 1.33899V23.5H43.95L28.5 10.0472L28.59 22.6321H24.18V0.5H24.36L39.78 14.1553L39.69 1.33899H44.07ZM71.88 20.4912C71.54 20.8384 70.935 21.2 70.065 21.5761C69.195 21.9522 68.235 22.2608 67.185 22.5019C66.135 22.743 65.18 22.8635 64.32 22.8635C61.98 22.8635 59.925 22.4247 58.155 21.5472C56.385 20.6696 55.02 19.4545 54.06 17.9019C53.1 16.3493 52.62 14.5797 52.62 12.5931C52.62 10.105 53.13 7.9979 54.15 6.2717C55.17 4.54549 56.54 3.25325 58.26 2.39497C59.98 1.53669 61.88 1.10755 63.96 1.10755C65.3 1.10755 66.56 1.2522 67.74 1.54151C68.92 1.83082 69.96 2.20692 70.86 2.66981L69.45 6.57547C68.87 6.26688 68.075 5.98239 67.065 5.72201C66.055 5.46163 65.21 5.33145 64.53 5.33145C62.13 5.33145 60.295 5.91006 59.025 7.0673C57.755 8.22453 57.12 9.94109 57.12 12.217C57.12 13.5285 57.43 14.6713 58.05 15.6453C58.67 16.6193 59.535 17.3667 60.645 17.8874C61.755 18.4082 63.02 18.6686 64.44 18.6686C65.8 18.6686 66.81 18.4853 67.47 18.1189V15.544H63.66V11.4937H71.88V20.4912Z" fill="#EB51C2"/>
</svg>
