<svg width="1440" height="889" viewBox="0 0 1440 889" fill="none" xmlns="http://www.w3.org/2000/svg">
<path d="M0 825L80 819.7C160 814 320 804 480 814.3C640 825 800 857 960 873C1120 889 1280 889 1360 889H1440V793H1360C1280 793 1120 793 960 793C800 793 640 793 480 793C320 793 160 793 80 793H0V825Z" fill="#EB51C2"/>
<rect y="96.0001" width="1440" height="697" fill="#EB51C2"/>
<path d="M1440 64L1360 69.3C1280 75 1120 85 960 74.7C800 64 640 32 480 16C320 0 160 0 80 0H0V96H80C160 96 320 96 480 96C640 96 800 96 960 96C1120 96 1280 96 1360 96H1440V64Z" fill="#EB51C2"/>
</svg>
