<svg width="180" height="23" viewBox="0 0 180 23" fill="none" xmlns="http://www.w3.org/2000/svg">
<path d="M93.8099 10.9075C94.9699 11.4271 95.8749 12.1056 96.5249 12.9428C97.1749 13.78 97.4999 14.7472 97.4999 15.8442C97.4999 17.9998 96.7649 19.5828 95.2949 20.5933C93.8249 21.6037 91.9899 22.1089 89.7899 22.1089H82.4399V0.86084H88.9199C91.2599 0.86084 93.0999 1.31794 94.4399 2.23215C95.7799 3.14636 96.4499 4.46955 96.4499 6.20173C96.4499 7.26029 96.2199 8.18893 95.7599 8.98766C95.2999 9.78638 94.6499 10.4263 93.8099 10.9075ZM86.7899 9.55061H89.4299C90.2299 9.55061 90.8499 9.31485 91.2899 8.84331C91.7299 8.37177 91.9499 7.78957 91.9499 7.09669C91.9499 6.38457 91.6999 5.84086 91.1999 5.46556C90.6999 5.09025 90.0099 4.9026 89.1299 4.9026H86.7899V9.55061ZM89.5799 18.2115C90.5999 18.2115 91.4249 18.0142 92.0549 17.6197C92.6849 17.2251 92.9999 16.6333 92.9999 15.8442C92.9999 14.343 91.7599 13.5924 89.2799 13.5924H86.7899V18.2115H89.5799ZM104.7 11.5138C104.7 9.58911 105.205 7.78956 106.215 6.11512C107.225 4.44068 108.595 3.10786 110.325 2.11667C112.055 1.12548 113.93 0.629883 115.95 0.629883C117.97 0.629883 119.845 1.12548 121.575 2.11667C123.305 3.10786 124.685 4.44068 125.715 6.11512C126.745 7.78956 127.26 9.58911 127.26 11.5138C127.26 13.4769 126.745 15.2861 125.715 16.9413C124.685 18.5964 123.305 19.91 121.575 20.882C119.845 21.8539 117.97 22.3399 115.95 22.3399C113.91 22.3399 112.03 21.8539 110.31 20.882C108.59 19.91 107.225 18.5964 106.215 16.9413C105.205 15.2861 104.7 13.4769 104.7 11.5138ZM109.2 11.5138C109.2 12.7455 109.505 13.8811 110.115 14.9204C110.725 15.9597 111.555 16.7825 112.605 17.3887C113.655 17.995 114.82 18.2981 116.1 18.2981C117.34 18.2981 118.47 17.995 119.49 17.3887C120.51 16.7825 121.31 15.9645 121.89 14.9348C122.47 13.9051 122.76 12.7648 122.76 11.5138C122.76 10.2435 122.46 9.0887 121.86 8.04939C121.26 7.01008 120.445 6.1873 119.415 5.58103C118.385 4.97477 117.24 4.67164 115.98 4.67164C114.72 4.67164 113.575 4.97477 112.545 5.58103C111.515 6.1873 110.7 7.01008 110.1 8.04939C109.5 9.0887 109.2 10.2435 109.2 11.5138ZM135.81 0.86084H142.41C145.23 0.86084 147.55 1.38531 149.37 2.43424C151.19 3.48317 152.515 4.84004 153.345 6.50486C154.175 8.16968 154.59 9.95479 154.59 11.8602C154.59 13.9003 154.09 15.6999 153.09 17.2588C152.09 18.8178 150.745 20.0159 149.055 20.8531C147.365 21.6903 145.51 22.1089 143.49 22.1089H135.81V0.86084ZM142.74 18.0672C145 18.0672 146.79 17.509 148.11 16.3927C149.43 15.2764 150.09 13.6694 150.09 11.5715C150.09 9.8778 149.725 8.53055 148.995 7.52974C148.265 6.52892 147.415 5.83605 146.445 5.45112C145.475 5.06619 144.56 4.87373 143.7 4.87373H140.16V18.0672H142.74ZM180 0.86084L171.72 15.4978V22.1089H167.37V15.4978L159.24 0.86084H164.61L169.68 10.6765L174.63 0.86084H180Z" fill="white"/>
<path d="M15.06 0.838993V4.88931H4.35V9.43145H13.83V13.4818H4.35V18.0818H15.48V22.1321H0V0.838993H15.06ZM44.07 0.838993V23H43.95L28.5 9.54717L28.59 22.1321H24.18V0H24.36L39.78 13.6553L39.69 0.838993H44.07ZM71.88 19.9912C71.54 20.3384 70.935 20.7 70.065 21.0761C69.195 21.4522 68.235 21.7608 67.185 22.0019C66.135 22.243 65.18 22.3635 64.32 22.3635C61.98 22.3635 59.925 21.9247 58.155 21.0472C56.385 20.1696 55.02 18.9545 54.06 17.4019C53.1 15.8493 52.62 14.0797 52.62 12.0931C52.62 9.60503 53.13 7.4979 54.15 5.7717C55.17 4.04549 56.54 2.75325 58.26 1.89497C59.98 1.03669 61.88 0.607546 63.96 0.607546C65.3 0.607546 66.56 0.752201 67.74 1.04151C68.92 1.33082 69.96 1.70692 70.86 2.16981L69.45 6.07547C68.87 5.76688 68.075 5.48239 67.065 5.22201C66.055 4.96163 65.21 4.83145 64.53 4.83145C62.13 4.83145 60.295 5.41006 59.025 6.5673C57.755 7.72453 57.12 9.44109 57.12 11.717C57.12 13.0285 57.43 14.1713 58.05 15.1453C58.67 16.1193 59.535 16.8667 60.645 17.3874C61.755 17.9082 63.02 18.1686 64.44 18.1686C65.8 18.1686 66.81 17.9853 67.47 17.6189V15.044H63.66V10.9937H71.88V19.9912Z" fill="white"/>
</svg>
